<?xml version="1.0" encoding="UTF-8"?>
<svg xmlns="http://www.w3.org/2000/svg" xmlns:xlink="http://www.w3.org/1999/xlink" height="124.0" preserveAspectRatio="xMidYMid meet" version="1.0" viewBox="0.0 0.0 108.0 124.0" width="108.0" zoomAndPan="magnify"><g><g><g><g id="change1_2"><path d="M43.58,67.46v43.34c0,3.31-2.68,6-6,6H7c-3.87,0-7-3.14-7-7V68.46c0-3.86,3.13-7,7-7h12.66h4.24 h13.68C40.9,61.46,43.58,64.15,43.58,67.46z" fill="#c3ddda"/></g><g id="change2_1"><path d="M36.52,65.04H7.06c-1.66,0-3,1.34-3,3v42.18c0,1.66,1.34,3,3,3h28.77c2.04,0,3.69-1.65,3.69-3.69 V68.04C39.52,66.38,38.18,65.04,36.52,65.04z" fill="#ad1f48"/></g><g id="change1_3"><path d="M8.54 70.52H35.04V89.13H8.54z" fill="#c3ddda"/></g><g id="change1_1"><path d="M87.87 98.72H92.13000000000001V104.55H87.87z" fill="#c3ddda"/></g><g id="change2_2"><path d="M87.87,104.55h4.26c0,8.53-6.93,15.47-15.46,15.47c-0.87,0-1.72-0.07-2.54-0.21 c-7.32-1.21-12.92-7.6-12.92-15.26V64.97c0-7.15-5.82-12.97-12.98-12.97H27.99c-2.24,0-4.07,1.82-4.07,4.06l-0.02,5.4h-4.24v-5.4 c0-4.59,3.74-8.33,8.33-8.33h20.24c9.51,0,17.24,7.74,17.24,17.24v39.58c0,5.35,3.77,9.83,8.78,10.93v0.01 c0.78,0.17,1.59,0.26,2.42,0.26C82.84,115.75,87.87,110.73,87.87,104.55z" fill="#ad1f48"/></g><g id="change3_1"><path d="M105.4,13.58v1.1c0,2.09-1.69,3.78-3.78,3.78h-0.5c-2.09,0-3.78-1.69-3.78-3.78V5.47 c0-2.09,1.69-3.78,3.78-3.78h0.5c2.09,0,3.78,1.69,3.78,3.78V13.58z" fill="#ffd7d2"/></g><g id="change3_5"><path d="M73.69,12.58V6.6c0-1.95,1.58-3.52,3.52-3.52c0.97,0,1.86,0.39,2.5,1.03 c0.63,0.63,1.03,1.51,1.03,2.49v2.77c-0.43-0.2-0.87-0.28-1.32-0.28c-1.2,0-2.45,0.62-3.55,1.45c0,0-0.9,0.8-2.17,2.05 L73.69,12.58z" fill="#ffd7d2"/></g><g id="change3_3"><path d="M89.27,19.14v1.43c0,2.36-1.91,4.27-4.27,4.27c-1.18,0-2.24-0.48-3.01-1.25 c-0.77-0.77-1.25-1.84-1.25-3.02v-2.39c0.55-1,1.1-2.06,1.64-3.12c0.99-1.96,0.69-4.03-0.94-5.28c-0.23-0.17-0.46-0.31-0.7-0.41 V6.6V4.26C80.74,1.91,82.65,0,85,0c1.18,0,2.25,0.48,3.02,1.25c0.77,0.77,1.25,1.83,1.25,3.01V19.14z" fill="#ffd7d2"/></g><g id="change3_2"><path d="M97.34,14.68v4.46c0,2.09-1.7,3.79-3.79,3.79h-0.5c-2.09,0-3.78-1.7-3.78-3.79V4.26V3.85 c0-2.09,1.69-3.79,3.78-3.79h0.5c2.09,0,3.79,1.7,3.79,3.79v1.62V14.68z" fill="#ffd7d2"/></g><g id="change4_1"><path d="M80.74,18.18v2.39c0,1.18,0.48,2.25,1.25,3.02c0.77,0.77,1.83,1.25,3.01,1.25 c2.36,0,4.27-1.91,4.27-4.27v-1.43c0,2.09,1.69,3.79,3.78,3.79h0.5c2.09,0,3.79-1.7,3.79-3.79v-4.46c0,2.09,1.69,3.78,3.78,3.78 h0.5c2.09,0,3.78-1.69,3.78-3.78v-1.1c0,0,2.64,0.92,2.64,4.28c0,1.65-0.61,4.01-3.09,6.47c-1.62,1.61-4.04,3.26-7.61,4.77 c-9.03,3.83-14.89,1.57-14.89,1.57c-1.15-3.07-3.15-5.26-6.08-6.49C77.93,22.81,79.37,20.64,80.74,18.18z" fill="#fec4b9"/></g><g id="change4_2"><path d="M76.37,24.18c2.93,1.23,4.93,3.42,6.08,6.49c0,0,5.86,2.26,14.89-1.57 c3.57-1.51,5.99-3.16,7.61-4.77v10.34c0,2.4-1.24,4.51-3.11,5.72l2.59,83.61H74.01l0.12-4.19c0.82,0.14,1.67,0.21,2.54,0.21 c8.53,0,15.46-6.94,15.46-15.47v-5.83h-4.26v5.83c0,6.18-5.03,11.2-11.2,11.2c-0.83,0-1.64-0.09-2.42-0.26v-0.01l2.12-75.08 c-0.19-0.08-0.37-0.16-0.54-0.25c-3.29-1.7-10.15-11.83-10.15-16.2c0-3.08,5.03-8.45,8.02-11.36c1.27-1.25,2.17-2.05,2.17-2.05 c1.1-0.83,2.35-1.45,3.55-1.45c0.45,0,0.89,0.08,1.32,0.28c0.24,0.1,0.47,0.24,0.7,0.41c1.63,1.25,1.93,3.32,0.94,5.28 c-0.54,1.06-1.09,2.12-1.64,3.12C79.37,20.64,77.93,22.81,76.37,24.18z" fill="#fec4b9"/></g></g><g><g id="change3_6"><path d="M84.541,40.462c-0.042,0.003-3.94,0.258-6.951-0.682c-0.484-0.151-1,0.1-1.197,0.567v0 c-0.231,0.547,0.062,1.175,0.628,1.35c2.194,0.677,4.695,0.8,6.227,0.8c0.822,0,1.364-0.035,1.432-0.04 c0.551-0.038,0.967-0.516,0.929-1.066C85.569,40.84,85.078,40.423,84.541,40.462z" fill="#ffd7d2"/></g><g id="change5_1"><path d="M105.4,4.47c-0.553,0-1,0.448-1,1v9.21c0,1.535-1.245,2.78-2.78,2.78h-0.5 c-1.535,0-2.779-1.244-2.779-2.779V5.47V3.85c0-0.552-0.447-1-1-1s-1,0.448-1,1v1.62v9.21v4.46c0,1.541-1.249,2.79-2.79,2.79 h-0.5c-1.535,0-2.78-1.245-2.78-2.78V3.85c0-0.552-0.447-1-1-1s-1,0.448-1,1v15.29v1.253c0,1.706-1.228,3.254-2.925,3.428 c-1.209,0.124-2.361-0.41-3.063-1.441c-0.379-0.556-0.543-1.233-0.543-1.906l0-2.045c0.513-0.942,1.027-1.927,1.533-2.92 c1.234-2.446,0.754-5.007-1.238-6.535c-0.101-0.075-0.197-0.134-0.295-0.196V4.26c0-0.552-0.447-1-1-1s-1,0.448-1,1v3.848 c-1.355-0.093-2.899,0.446-4.534,1.685c-0.017,0.015-0.207,0.185-0.516,0.469V6.6c0-0.552-0.447-1-1-1s-1,0.448-1,1v5.98 c0,0.277,0.113,0.528,0.296,0.709c0.001,0.001,0.001,0.001,0.001,0.002c0.388,0.394,1.021,0.398,1.414,0.012 c1.203-1.184,2.078-1.966,2.073-1.966c1.082-0.816,2.101-1.247,2.946-1.247c0.332,0,0.624,0.061,0.93,0.201c0,0,0.001,0,0.001,0 c0.001,0.001,0.003,0.001,0.004,0.001c0.15,0.063,0.311,0.158,0.477,0.28c1.197,0.918,1.449,2.465,0.658,4.033 c-0.535,1.051-1.081,2.102-1.624,3.087c-1.551,2.785-2.871,4.608-4.156,5.736c-0.973,0.855-1.879,1.271-2.77,1.271 c-0.553,0-1,0.448-1,1s0.447,1,1,1c1.194,0,2.385-0.474,3.55-1.356c2.366,1.14,4.019,2.995,5.023,5.676 c0.101,0.268,0.311,0.479,0.577,0.583c0.137,0.053,1.969,0.734,5.085,0.734c2.665,0,6.27-0.499,10.555-2.316 c2.531-1.071,4.666-2.285,6.376-3.621c0.449-0.351,0.486-1.02,0.103-1.443v0c-0.359-0.395-0.955-0.428-1.376-0.1 c-1.561,1.214-3.531,2.328-5.883,3.323c-7.212,3.058-12.331,2.061-13.745,1.677c-1.092-2.649-2.823-4.639-5.146-5.951 c0.582-0.645,1.171-1.41,1.781-2.317c0.199,1.019,0.693,1.957,1.443,2.708c0.995,0.995,2.315,1.542,3.718,1.542 c2.163,0,4.022-1.312,4.833-3.181c0.851,0.782,1.974,1.271,3.217,1.271h0.5c2.645,0,4.79-2.145,4.79-4.79v-0.587 c0.785,0.565,1.74,0.907,2.779,0.907h0.5c2.64,0,4.78-2.14,4.78-4.78V5.47C106.4,4.918,105.953,4.47,105.4,4.47z" fill="#f7b6ad"/></g><g id="change3_4"><path d="M101.795,40.321c-0.273-0.414-0.804-0.557-1.254-0.35c-0.745,0.341-1.565,0.519-2.41,0.519H93.62 c-0.553,0-1,0.448-1,1s0.447,1,1,1h4.511c1.146,0,2.259-0.245,3.272-0.714C101.95,41.522,102.127,40.825,101.795,40.321 L101.795,40.321z" fill="#ffd7d2"/></g><g id="change6_1"><path d="M95.329,96.89c-0.146,0-0.296-0.032-0.438-0.101c-3.389-1.653-6.688-1.652-10.084,0 c-0.496,0.243-1.095,0.035-1.337-0.462c-0.241-0.497-0.034-1.095,0.462-1.337c3.932-1.912,7.914-1.913,11.836,0 c0.496,0.242,0.702,0.841,0.46,1.337C96.055,96.684,95.699,96.89,95.329,96.89z" fill="#dfa3a5"/></g><g id="change7_1"><path d="M6.02,68v24h31V68H6.02z M35.04,89.13H8.54V70.52h26.5V89.13z" fill="#d6eae8"/></g></g></g></g></svg>