<svg width="21" height="21" viewBox="0 0 21 21" fill="none" xmlns="http://www.w3.org/2000/svg">
<path d="M2.875 2.99999C2.875 1.34314 4.16212 0 5.74987 0C7.33761 0 8.62474 1.34314 8.62474 2.99999C8.62474 3.96713 8.18617 4.82738 7.50526 5.37599C7.48478 5.39176 7.46442 5.40772 7.44421 5.42384C6.96909 5.78613 6.3834 5.99999 5.74987 5.99999C4.16212 5.99999 2.875 4.65685 2.875 2.99999Z" fill="#C3CAD9"/>
<path d="M12.6195 5.37599C12.64 5.39176 12.6603 5.40772 12.6805 5.42386C13.1556 5.78615 13.7414 5.99999 14.3749 5.99999C15.9627 5.99999 17.2497 4.65685 17.2497 2.99999C17.2497 1.34314 15.9627 0 14.3749 0C12.7871 0 11.5 1.34314 11.5 2.99999C11.5 3.96713 11.9386 4.82738 12.6195 5.37599Z" fill="#C3CAD9"/>
<path d="M7.5721 7.5C8.06918 6.6033 8.99826 6 10.0624 6C11.1265 6 12.0556 6.6033 12.5526 7.5C12.7972 7.94125 12.9372 8.45356 12.9372 8.99999C12.9372 10.6568 11.6501 12 10.0624 12C8.47462 12 7.1875 10.6568 7.1875 8.99999C7.1875 8.45356 7.32749 7.94125 7.5721 7.5Z" fill="#C3CAD9"/>
<path d="M2.15612 7.5H5.99512C5.8362 7.96917 5.74974 8.47404 5.74974 9C5.74974 10.1525 6.16494 11.2039 6.84778 12H6.46842C4.90861 12 3.58094 13.0371 3.08397 14.4864C2.5953 14.2789 2.14319 14.0079 1.74239 13.6722C0.659739 12.7654 0 11.4241 0 9.75C0 8.50741 0.965323 7.5 2.15612 7.5V7.5Z" fill="#C3CAD9"/>
<path d="M13.6547 12C15.2145 12 16.5422 13.037 17.0392 14.4864C17.5279 14.2789 17.98 14.0079 18.3809 13.6722C19.4634 12.7654 20.1232 11.4241 20.1232 9.75C20.1232 8.50735 19.1578 7.5 17.967 7.5H14.1281C14.2869 7.96917 14.3734 8.47404 14.3734 9C14.3734 10.1525 13.9582 11.2039 13.2754 12H13.6547Z" fill="#C3CAD9"/>
<path d="M15.6497 14.892C15.7542 15.1564 15.812 15.4462 15.812 15.75C15.812 17.4241 15.1522 18.7654 14.0697 19.6722C13.0041 20.5647 11.576 21 10.0622 21C8.5485 21 7.12041 20.5647 6.05489 19.6722C4.97224 18.7654 4.3125 17.4241 4.3125 15.75C4.3125 15.4462 4.37021 15.1564 4.47481 14.892C4.79804 14.0749 5.56898 13.5 6.46862 13.5H13.6558C14.5555 13.5 15.3264 14.0749 15.6497 14.892Z" fill="#C3CAD9"/>
</svg>
