<svg width="22" height="22" viewBox="0 0 22 22" fill="none" xmlns="http://www.w3.org/2000/svg">
<path fill-rule="evenodd" clip-rule="evenodd" d="M11.0888 1.89628C9.07878 -0.113718 6.06878 -0.523718 3.64878 0.656282L7.27878 4.28628C7.66878 4.67628 7.66878 5.30628 7.27878 5.69628L5.68878 7.28628C5.29878 7.68628 4.66878 7.68628 4.27878 7.28628L0.648783 3.65628C-0.521217 6.08628 -0.111217 9.07628 1.89878 11.0863C3.75878 12.9463 6.47878 13.4363 8.78878 12.5663L16.7488 20.5263C17.7788 21.5563 19.4388 21.5563 20.4588 20.5263C21.4888 19.4963 21.4888 17.8363 20.4588 16.8163L12.5388 8.88628C13.4588 6.54628 12.9788 3.78628 11.0888 1.89628Z" fill="#C3CAD9"/>
</svg>
