<svg width="69" height="67" viewBox="0 0 69 67" fill="none" xmlns="http://www.w3.org/2000/svg">
<path d="M35.0607 15.9395C34.4749 15.3538 33.5251 15.3538 32.9393 15.9395L23.3934 25.4855C22.8076 26.0713 22.8076 27.021 23.3934 27.6068C23.9792 28.1926 24.9289 28.1926 25.5147 27.6068L34 19.1215L42.4853 27.6068C43.0711 28.1926 44.0208 28.1926 44.6066 27.6068C45.1924 27.021 45.1924 26.0713 44.6066 25.4855L35.0607 15.9395ZM35.5 52.2603V17.0002H32.5V52.2603H35.5Z" fill="#B83B25"/>
<path d="M68 33.5C68 51.4217 53.0295 66 34.5 66C15.9705 66 1 51.4217 1 33.5C1 15.5783 15.9705 1 34.5 1C53.0295 1 68 15.5783 68 33.5Z" stroke="#B83B25" stroke-width="2"/>
</svg>
